<?xml version="1.0" encoding="UTF-8"?>
<svg id="Layer_2" data-name="Layer 2" xmlns="http://www.w3.org/2000/svg" viewBox="0 0 641.23 203.05">
  <defs>
    <style>
      .cls-1 {
        fill: #ddd;
      }

      .cls-2, .cls-3 {
        fill: #ea0029;
      }

      .cls-4, .cls-3 {
        fill-rule: evenodd;
      }

      .cls-4, .cls-5 {
        fill: #000f9f;
      }
    </style>
  </defs>
  <g id="Layer_1-2" data-name="Layer 1">
    <g>
      <g>
        <path class="cls-5" d="m200.5,158.06h-10.96v-8.01h31.97v8.01h-10.91v27.69h-10.1v-27.69Z"/>
        <path class="cls-5" d="m223.14,169.84v-19.79h10.1v19.48c0,6.12,2.55,8.57,6.78,8.57s6.73-2.45,6.73-8.57v-19.48h9.94v19.79c0,10.66-6.22,16.62-16.78,16.62s-16.78-5.97-16.78-16.62Zm18.71-30.44h9.69l-9.59,7.75h-6.93l6.83-7.75Z"/>
        <path class="cls-5" d="m304.47,177.95v7.8h-28.66v-35.7h28v7.8h-18v6.02h15.86v7.55h-15.86v6.53h18.66Z"/>
        <path class="cls-5" d="m308.81,150.06h10.1v27.69h17.03v8.01h-27.13v-35.7Z"/>
        <path class="cls-5" d="m338.64,150.06h10.1v35.7h-10.1v-35.7Z"/>
        <path class="cls-5" d="m378.56,167.14h8.92v14.79c-4.13,2.96-9.79,4.54-14.99,4.54-11.37,0-19.68-7.7-19.68-18.56s8.31-18.56,19.89-18.56c6.68,0,12.09,2.29,15.6,6.53l-6.42,5.81c-2.45-2.7-5.25-3.98-8.67-3.98-6.12,0-10.2,4.03-10.2,10.2s4.08,10.2,10.1,10.2c1.89,0,3.67-.36,5.46-1.17v-9.79Z"/>
        <path class="cls-5" d="m421.3,177.95v7.8h-28.66v-35.7h28v7.8h-18v6.02h15.86v7.55h-15.86v6.53h18.66Z"/>
        <path class="cls-5" d="m423.13,182.54l3.31-7.45c3.16,2.09,7.65,3.52,11.78,3.52s5.81-1.17,5.81-2.91c0-5.66-20.3-1.53-20.3-14.79,0-6.37,5.2-11.58,15.81-11.58,4.64,0,9.43,1.07,12.95,3.11l-3.11,7.5c-3.42-1.84-6.78-2.75-9.89-2.75-4.23,0-5.76,1.43-5.76,3.21,0,5.46,20.24,1.38,20.24,14.53,0,6.22-5.2,11.52-15.81,11.52-5.86,0-11.68-1.58-15.04-3.93Z"/>
      </g>
      <rect class="cls-5" x="184.67" y="197.93" width="274.19" height="5.12"/>
      <rect class="cls-5" x="184.67" y="131.74" width="274.19" height="5.12"/>
    </g>
    <g>
      <g>
        <path class="cls-1" d="m454.32,48.45c-30.1,8.73-50.02,32.64-57.94,54.61l28.73-20.96,28.73,20.96-11.05-33.8,28.81-20.84-17.26.03Z"/>
        <path class="cls-1" d="m387.16,115.35l4.98-13.82c7.73-21.45,27.8-47.79,60.92-57.4l.61-.18,31.84-.06-37.44,27.09,14.37,43.93-37.34-27.24-37.94,27.68Zm37.94-38.82l20.12,14.67-7.74-23.67,20.17-14.6h-2.68c-21.65,6.47-37.05,20.88-46.47,35.7l16.6-12.11Z"/>
      </g>
      <g>
        <path class="cls-1" d="m432.97,39.02l-7.87-24.37-10.92,33.84-35.56-.07,26.98,19.53c6.13-11.37,15.58-21.29,27.36-28.93Z"/>
        <path class="cls-1" d="m407.13,74.6l-42.44-30.71,46.21.09L425.1,0l13.21,40.92-2.89,1.88c-11.21,7.26-20.14,16.7-25.85,27.29l-2.44,4.52Zm-14.58-21.66l11.67,8.45c1.83-2.9,3.88-5.71,6.13-8.41l-17.81-.03Zm32.55-23.65l-4.23,13.11c2.15-1.83,4.42-3.57,6.78-5.23l-2.54-7.88Z"/>
      </g>
      <g>
        <polygon class="cls-1" points="81.22 14.65 59.72 66.07 38.72 14.65 6.79 14.65 44 102.65 73.17 102.65 110.38 14.65 81.22 14.65"/>
        <path class="cls-1" d="m76.15,107.15h-35.13L0,10.15h41.75l18.02,44.14,18.45-44.14h38.95l-41.02,97Zm-29.17-9h23.2L103.59,19.15h-19.38l-24.54,58.7-23.97-58.7H13.58l33.41,79Z"/>
      </g>
      <g>
        <polygon class="cls-1" points="193.76 37.66 219.54 37.66 219.54 102.65 249.21 102.65 249.21 37.66 274.98 37.66 274.98 14.65 193.76 14.65 193.76 37.66"/>
        <path class="cls-1" d="m253.71,107.15h-38.67V42.16h-25.77V10.15h90.22v32.01h-25.77v65Zm-29.67-9h20.67V33.16h25.77v-14.01h-72.22v14.01h25.77v65Z"/>
      </g>
      <g>
        <path class="cls-1" d="m532.79,68.4c12.36-11.37,14.7-19.03,14.7-27.43,0-16.06-13.72-26.32-33.61-26.32-17.05,0-29.29,7.17-35.84,18.04l18.17,10.13c3.46-5.56,9.14-8.4,15.45-8.4,7.41,0,11.12,3.34,11.12,8.9,0,3.58-.99,7.54-7.91,13.96l-32.38,30.28v15.32h67.35v-19.4h-33.36l16.31-15.08Z"/>
        <path class="cls-1" d="m554.34,107.38h-76.35v-21.78l33.8-31.61c6.48-6.02,6.48-8.94,6.48-10.68,0-1.43,0-4.4-6.62-4.4-4.98,0-9.11,2.23-11.63,6.28l-2.27,3.64-25.98-14.49,2.4-3.99c7.85-13.04,21.95-20.22,39.69-20.22,22.8,0,38.11,12.39,38.11,30.82,0,9.53-2.75,18.41-16.16,30.74l-7.86,7.27h26.37v28.4Zm-67.35-9h58.35v-10.4h-40.36l24.76-22.89c12.24-11.26,13.25-17.83,13.25-24.12,0-13.26-11.43-21.82-29.11-21.82-12.55,0-22.76,4.24-29.27,12.05l10.4,5.8c4.2-4.54,10.07-7.08,16.65-7.08,11.52,0,15.62,6.92,15.62,13.4,0,6.09-2.71,11.1-9.35,17.26l-30.94,28.93v8.87Z"/>
      </g>
      <g>
        <polygon class="cls-1" points="623.88 66.92 623.88 52.22 600.77 52.22 600.77 66.92 583.22 66.92 619.24 14.73 593.91 14.73 554.31 70.38 554.31 86.32 600.03 86.32 600.03 102.88 623.88 102.88 623.88 86.32 636.73 86.32 636.73 66.92 623.88 66.92"/>
        <path class="cls-1" d="m628.38,107.38h-32.85v-16.56h-45.72v-21.88l41.78-58.71h36.23l-25.87,37.49h26.43v14.71h12.85v28.4h-12.85v16.56Zm-23.85-9h14.85v-16.56h12.85v-10.4h-12.85v-14.71h-14.11v14.71h-30.62l36.02-52.19h-14.44l-37.43,52.59v10h45.72v16.56Zm-12.73-35.96h4.47v-6.48l-4.47,6.48Z"/>
      </g>
      <g>
        <path class="cls-1" d="m147.86,14.65c-24.24,0-43.88,19.65-43.88,43.88s19.65,43.88,43.88,43.88,43.88-19.65,43.88-43.88-19.65-43.88-43.88-43.88Zm0,63.44c-10.8,0-19.56-8.76-19.56-19.56s8.76-19.56,19.56-19.56,19.56,8.76,19.56,19.56-8.76,19.56-19.56,19.56Z"/>
        <path class="cls-1" d="m147.86,106.91c-26.68,0-48.38-21.7-48.38-48.38s21.7-48.38,48.38-48.38,48.38,21.7,48.38,48.38-21.7,48.38-48.38,48.38Zm0-87.77c-21.72,0-39.38,17.67-39.38,39.38s17.67,39.38,39.38,39.38,39.38-17.67,39.38-39.38-17.67-39.38-39.38-39.38Zm0,63.44c-13.26,0-24.06-10.79-24.06-24.06s10.79-24.06,24.06-24.06,24.06,10.79,24.06,24.06-10.79,24.06-24.06,24.06Zm0-39.11c-8.3,0-15.06,6.75-15.06,15.06s6.75,15.06,15.06,15.06,15.06-6.75,15.06-15.06-6.75-15.06-15.06-15.06Z"/>
      </g>
      <g>
        <path class="cls-1" d="m320.9,14.65c-24.24,0-43.88,19.65-43.88,43.88s19.65,43.88,43.88,43.88,43.88-19.65,43.88-43.88-19.65-43.88-43.88-43.88Zm0,63.44c-10.8,0-19.56-8.76-19.56-19.56s8.76-19.56,19.56-19.56,19.56,8.76,19.56,19.56-8.76,19.56-19.56,19.56Z"/>
        <path class="cls-1" d="m320.9,106.91c-26.68,0-48.38-21.7-48.38-48.38s21.7-48.38,48.38-48.38,48.38,21.7,48.38,48.38-21.7,48.38-48.38,48.38Zm0-87.77c-21.72,0-39.38,17.67-39.38,39.38s17.67,39.38,39.38,39.38,39.38-17.67,39.38-39.38-17.67-39.38-39.38-39.38Zm0,63.44c-13.26,0-24.06-10.79-24.06-24.06s10.79-24.06,24.06-24.06,24.06,10.79,24.06,24.06-10.79,24.06-24.06,24.06Zm0-39.11c-8.3,0-15.06,6.75-15.06,15.06s6.75,15.06,15.06,15.06,15.06-6.75,15.06-15.06-6.75-15.06-15.06-15.06Z"/>
      </g>
    </g>
    <g>
      <path class="cls-3" d="m454.32,48.45l17.26-.03-28.81,20.84,11.05,33.8-28.73-20.96-28.73,20.96c7.92-21.97,27.84-45.87,57.94-54.61h0Z"/>
      <path class="cls-4" d="m425.1,14.65l7.87,24.37c-11.78,7.64-21.23,17.55-27.36,28.93l-26.98-19.53,35.56.07,10.92-33.84h0Z"/>
    </g>
    <path class="cls-5" d="m110.38,14.65l-37.21,88.01h-29.17L6.79,14.65h31.93l21,51.42,21.5-51.42h29.17Z"/>
    <path class="cls-5" d="m219.54,37.66h-25.77V14.65h81.22v23.01h-25.77v65h-29.67V37.66Z"/>
    <path class="cls-2" d="m549.84,83.48v19.4h-67.35v-15.32l32.38-30.28c6.92-6.43,7.91-10.38,7.91-13.96,0-5.56-3.71-8.9-11.12-8.9-6.3,0-11.99,2.84-15.45,8.4l-18.17-10.13c6.55-10.87,18.78-18.04,35.84-18.04,19.9,0,33.61,10.26,33.61,26.32,0,8.4-2.35,16.06-14.7,27.43l-16.31,15.08h33.36Z"/>
    <path class="cls-2" d="m636.73,86.32h-12.85v16.56h-23.85v-16.56h-45.72v-15.94l39.6-55.65h25.33l-36.02,52.19h17.55v-14.7h23.11v14.7h12.85v19.4Z"/>
    <path class="cls-5" d="m147.86,14.65c-24.24,0-43.88,19.65-43.88,43.88s19.65,43.88,43.88,43.88,43.88-19.65,43.88-43.88-19.65-43.88-43.88-43.88Zm0,63.44c-10.8,0-19.56-8.76-19.56-19.56s8.76-19.56,19.56-19.56,19.56,8.76,19.56,19.56-8.76,19.56-19.56,19.56Z"/>
    <path class="cls-5" d="m320.9,14.65c-24.24,0-43.88,19.65-43.88,43.88s19.65,43.88,43.88,43.88,43.88-19.65,43.88-43.88-19.65-43.88-43.88-43.88Zm0,63.44c-10.8,0-19.56-8.76-19.56-19.56s8.76-19.56,19.56-19.56,19.56,8.76,19.56,19.56-8.76,19.56-19.56,19.56Z"/>
  </g>
</svg>